CD_DA
// check mulitple tracks
CATALOG "0724385356926"

TRACK AUDIO
ISRC "USEM39600078"
COPY
FILE "cdda.bin" 0:10:0
START 0:5:0

TRACK AUDIO
NO COPY
ISRC "USEM39600079"
FILE "cdda.bin" 0:10:0
START 0:2:0

TRACK AUDIO
COPY
FILE "cdda.bin" 0:10:0
START 0:1:30

TRACK AUDIO
NO COPY
START 0:0:0
FILE "cdda.bin" 0:10:0

TRACK AUDIO
ISRC "EDUMA9892346"
NO COPY
FILE "cdda.bin" 0:10:0
START 0:2:1
